<?xml version="1.0" encoding="UTF-8" standalone="no"?>
<!DOCTYPE svg PUBLIC "-//W3C//DTD SVG 1.1//EN"
 "http://www.w3.org/Graphics/SVG/1.1/DTD/svg11.dtd">
<!-- Generated by graphviz version 2.40.1 (20161225.0304)
 -->
<!-- Title: %0 Pages: 1 -->
<svg width="521pt" height="145pt"
 viewBox="0.00 0.00 520.86 145.00" xmlns="http://www.w3.org/2000/svg" xmlns:xlink="http://www.w3.org/1999/xlink">
<g id="graph0" class="graph" transform="scale(1 1) rotate(0) translate(4 141)">
<title>%0</title>
<polygon fill="#ffffff" stroke="transparent" points="-4,4 -4,-141 516.8556,-141 516.8556,4 -4,4"/>
<g id="clust1" class="cluster">
<title>clusterY1</title>
<polygon fill="#add8e6" stroke="#add8e6" points="8,-13 8,-90 78,-90 78,-13 8,-13"/>
<text text-anchor="start" x="34.4467" y="-74.4" font-family="Times,serif" font-size="14.00" fill="#000000">Y</text>
<text text-anchor="start" x="44.5533" y="-74.4" font-family="Times,serif" baseline-shift="sub" font-size="14.00" fill="#000000">1</text>
</g>
<g id="clust2" class="cluster">
<title>clusterY2</title>
<polygon fill="#add8e6" stroke="#add8e6" points="114.3212,-40 114.3212,-117 184.3212,-117 184.3212,-40 114.3212,-40"/>
<text text-anchor="start" x="140.7679" y="-101.4" font-family="Times,serif" font-size="14.00" fill="#000000">Y</text>
<text text-anchor="start" x="150.8745" y="-101.4" font-family="Times,serif" baseline-shift="sub" font-size="14.00" fill="#000000">2</text>
</g>
<g id="clust3" class="cluster">
<title>clusterY3</title>
<polygon fill="#add8e6" stroke="#add8e6" points="221.4278,-8 221.4278,-85 291.4278,-85 291.4278,-8 221.4278,-8"/>
<text text-anchor="start" x="247.8745" y="-69.4" font-family="Times,serif" font-size="14.00" fill="#000000">Y</text>
<text text-anchor="start" x="257.9811" y="-69.4" font-family="Times,serif" baseline-shift="sub" font-size="14.00" fill="#000000">3</text>
</g>
<g id="clust4" class="cluster">
<title>clusterY4</title>
<polygon fill="#add8e6" stroke="#add8e6" points="328.5344,-52 328.5344,-129 398.5344,-129 398.5344,-52 328.5344,-52"/>
<text text-anchor="start" x="354.9811" y="-113.4" font-family="Times,serif" font-size="14.00" fill="#000000">Y</text>
<text text-anchor="start" x="365.0877" y="-113.4" font-family="Times,serif" baseline-shift="sub" font-size="14.00" fill="#000000">4</text>
</g>
<g id="clust5" class="cluster">
<title>clusterY5</title>
<polygon fill="#add8e6" stroke="#add8e6" points="434.8556,-24 434.8556,-101 504.8556,-101 504.8556,-24 434.8556,-24"/>
<text text-anchor="start" x="461.3023" y="-85.4" font-family="Times,serif" font-size="14.00" fill="#000000">Y</text>
<text text-anchor="start" x="471.4089" y="-85.4" font-family="Times,serif" baseline-shift="sub" font-size="14.00" fill="#000000">5</text>
</g>
<!-- 1 -->
<g id="node1" class="node">
<title>1</title>
<ellipse fill="#ffffff" stroke="#ffffff" cx="43" cy="-39" rx="27" ry="18"/>
<text text-anchor="start" x="34.4467" y="-35.8" font-family="Times,serif" font-size="14.00" fill="#000000">X</text>
<text text-anchor="start" x="44.5533" y="-35.8" font-family="Times,serif" baseline-shift="sub" font-size="14.00" fill="#000000">1</text>
</g>
<!-- 2 -->
<g id="node2" class="node">
<title>2</title>
<ellipse fill="#ffffff" stroke="#ffffff" cx="149.3212" cy="-66" rx="27" ry="18"/>
<text text-anchor="start" x="140.7679" y="-62.8" font-family="Times,serif" font-size="14.00" fill="#000000">X</text>
<text text-anchor="start" x="150.8745" y="-62.8" font-family="Times,serif" baseline-shift="sub" font-size="14.00" fill="#000000">2</text>
</g>
<!-- 1&#45;&gt;2 -->
<g id="edge1" class="edge">
<title>1&#45;&gt;2</title>
<path fill="none" stroke="#000000" d="M68.4666,-45.4672C82.1433,-48.9403 99.213,-53.2752 114.1393,-57.0657"/>
<polygon fill="#000000" stroke="#000000" points="107.7144,-49.3024 114.3212,-57.5856 114.3219,-46.9903 107.7144,-49.3024"/>
<text text-anchor="start" x="88" y="-59.2" font-family="Times,serif" font-size="14.00" fill="#000000">X</text>
<text text-anchor="start" x="98.1066" y="-59.2" font-family="Times,serif" baseline-shift="sub" font-size="14.00" fill="#000000">a</text>
</g>
<!-- 3 -->
<g id="node3" class="node">
<title>3</title>
<ellipse fill="#ffffff" stroke="#ffffff" cx="256.4278" cy="-34" rx="27" ry="18"/>
<text text-anchor="start" x="247.8745" y="-30.8" font-family="Times,serif" font-size="14.00" fill="#000000">X</text>
<text text-anchor="start" x="257.9811" y="-30.8" font-family="Times,serif" baseline-shift="sub" font-size="14.00" fill="#000000">3</text>
</g>
<!-- 1&#45;&gt;3 -->
<g id="edge3" class="edge">
<title>1&#45;&gt;3</title>
<path fill="none" stroke="#000000" d="M67.0848,-30.5588C80.7497,-26.2163 98.2778,-21.3856 114.3212,-19.2 145.1476,-15.0004 153.3693,-16.0563 184.3212,-19.2 196.4165,-20.4285 209.4798,-22.7877 221.1215,-25.2677"/>
<polygon fill="#000000" stroke="#000000" points="211.0578,-23.2762 221.4278,-25.4528 214.6786,-17.2845 211.0578,-23.2762"/>
<text text-anchor="start" x="141.1606" y="-25.2" font-family="Times,serif" font-size="14.00" fill="#000000">X</text>
<text text-anchor="start" x="151.2672" y="-25.2" font-family="Times,serif" baseline-shift="sub" font-size="14.00" fill="#000000">c</text>
</g>
<!-- 2&#45;&gt;3 -->
<g id="edge2" class="edge">
<title>2&#45;&gt;3</title>
<path fill="none" stroke="#000000" d="M174.1628,-58.5781C185.355,-55.2343 198.9227,-51.1807 211.7848,-47.3379"/>
<polygon fill="#000000" stroke="#000000" points="212.8524,-50.6719 221.4319,-44.4556 210.8485,-43.9648 212.8524,-50.6719"/>
<text text-anchor="start" x="194.3212" y="-56.2" font-family="Times,serif" font-size="14.00" fill="#000000">X</text>
<text text-anchor="start" x="204.4278" y="-56.2" font-family="Times,serif" baseline-shift="sub" font-size="14.00" fill="#000000">b</text>
</g>
<!-- 4 -->
<g id="node4" class="node">
<title>4</title>
<ellipse fill="#ffffff" stroke="#ffffff" cx="363.5344" cy="-78" rx="27" ry="18"/>
<text text-anchor="start" x="354.9811" y="-74.8" font-family="Times,serif" font-size="14.00" fill="#000000">X</text>
<text text-anchor="start" x="365.0877" y="-74.8" font-family="Times,serif" baseline-shift="sub" font-size="14.00" fill="#000000">4</text>
</g>
<!-- 3&#45;&gt;4 -->
<g id="edge4" class="edge">
<title>3&#45;&gt;4</title>
<path fill="none" stroke="#000000" d="M279.6683,-43.5473C291.1564,-48.2667 305.4193,-54.126 318.9053,-59.6661"/>
<polygon fill="#000000" stroke="#000000" points="317.9572,-63.0604 328.5371,-63.6229 320.6171,-56.5855 317.9572,-63.0604"/>
<text text-anchor="start" x="301.4278" y="-63.2" font-family="Times,serif" font-size="14.00" fill="#000000">X</text>
<text text-anchor="start" x="311.5344" y="-63.2" font-family="Times,serif" baseline-shift="sub" font-size="14.00" fill="#000000">d</text>
</g>
<!-- 5 -->
<g id="node5" class="node">
<title>5</title>
<ellipse fill="#ffffff" stroke="#ffffff" cx="469.8556" cy="-50" rx="27" ry="18"/>
<text text-anchor="start" x="461.3023" y="-46.8" font-family="Times,serif" font-size="14.00" fill="#000000">X</text>
<text text-anchor="start" x="471.4089" y="-46.8" font-family="Times,serif" baseline-shift="sub" font-size="14.00" fill="#000000">5</text>
</g>
<!-- 3&#45;&gt;5 -->
<g id="edge6" class="edge">
<title>3&#45;&gt;5</title>
<path fill="none" stroke="#000000" d="M283.2718,-31.1134C311.9414,-28.5796 358.6459,-26.0311 398.5344,-31.2 407.1637,-32.3182 416.2371,-34.1674 424.9109,-36.2808"/>
<polygon fill="#000000" stroke="#000000" points="424.3009,-39.7382 434.8589,-38.855 426.0546,-32.9614 424.3009,-39.7382"/>
<text text-anchor="start" x="356.1508" y="-36.2" font-family="Times,serif" font-size="14.00" fill="#000000">X</text>
<text text-anchor="start" x="366.2574" y="-36.2" font-family="Times,serif" baseline-shift="sub" font-size="14.00" fill="#000000">f</text>
</g>
<!-- 4&#45;&gt;5 -->
<g id="edge5" class="edge">
<title>4&#45;&gt;5</title>
<path fill="none" stroke="#000000" d="M388.731,-71.3644C402.4019,-67.7641 419.5219,-63.2555 434.5069,-59.3092"/>
<polygon fill="#000000" stroke="#000000" points="433.0328,-69.1224 434.8556,-58.685 426.9218,-65.7076 433.0328,-69.1224"/>
<text text-anchor="start" x="408.5344" y="-70.2" font-family="Times,serif" font-size="14.00" fill="#000000">X</text>
<text text-anchor="start" x="418.641" y="-70.2" font-family="Times,serif" baseline-shift="sub" font-size="14.00" fill="#000000">e</text>
</g>
</g>
</svg>
