<?xml version="1.0" encoding="UTF-8" standalone="no"?>
<!DOCTYPE svg PUBLIC "-//W3C//DTD SVG 1.1//EN"
 "http://www.w3.org/Graphics/SVG/1.1/DTD/svg11.dtd">
<!-- Generated by graphviz version 2.40.1 (20161225.0304)
 -->
<!-- Title: %0 Pages: 1 -->
<svg width="598pt" height="171pt"
 viewBox="0.00 0.00 598.09 171.00" xmlns="http://www.w3.org/2000/svg" xmlns:xlink="http://www.w3.org/1999/xlink">
<g id="graph0" class="graph" transform="scale(1 1) rotate(0) translate(4 167)">
<title>%0</title>
<polygon fill="#ffffff" stroke="transparent" points="-4,4 -4,-167 594.0898,-167 594.0898,4 -4,4"/>
<g id="clust1" class="cluster">
<title>cluster1</title>
<polygon fill="none" stroke="#000000" points="8,-8 8,-138 347.2146,-138 347.2146,-8 8,-8"/>
<text text-anchor="start" x="169.439" y="-122.4" font-family="Times,serif" font-size="14.00" fill="#000000">C</text>
<text text-anchor="start" x="178.7756" y="-122.4" font-family="Times,serif" baseline-shift="sub" font-size="14.00" fill="#000000">1</text>
</g>
<g id="clust2" class="cluster">
<title>cluster3</title>
<polygon fill="none" stroke="#000000" points="374.2146,-78 374.2146,-155 582.0898,-155 582.0898,-78 374.2146,-78"/>
<text text-anchor="start" x="469.9839" y="-139.4" font-family="Times,serif" font-size="14.00" fill="#000000">C</text>
<text text-anchor="start" x="479.3205" y="-139.4" font-family="Times,serif" baseline-shift="sub" font-size="14.00" fill="#000000">3</text>
</g>
<!-- 1 -->
<g id="node1" class="node">
<title>1</title>
<ellipse fill="none" stroke="#000000" cx="43" cy="-70" rx="27" ry="18"/>
<text text-anchor="middle" x="43" y="-65.8" font-family="Times,serif" font-size="14.00" fill="#000000">1</text>
</g>
<!-- 2 -->
<g id="node2" class="node">
<title>2</title>
<ellipse fill="none" stroke="#000000" cx="177.2146" cy="-34" rx="27" ry="18"/>
<text text-anchor="middle" x="177.2146" y="-29.8" font-family="Times,serif" font-size="14.00" fill="#000000">2</text>
</g>
<!-- 1&#45;&gt;2 -->
<g id="edge1" class="edge">
<title>1&#45;&gt;2</title>
<path fill="none" stroke="#000000" d="M68.2447,-63.2287C89.147,-57.6221 119.0711,-49.5957 142.2745,-43.3719"/>
<polygon fill="#000000" stroke="#000000" points="143.3312,-46.7122 152.0831,-40.741 141.5177,-39.9512 143.3312,-46.7122"/>
<text text-anchor="start" x="107" y="-56.2" font-family="Times,serif" font-size="14.00" fill="#000000">a</text>
</g>
<!-- 3 -->
<g id="node3" class="node">
<title>3</title>
<ellipse fill="none" stroke="#000000" cx="312.2146" cy="-81" rx="27" ry="18"/>
<text text-anchor="middle" x="312.2146" y="-76.8" font-family="Times,serif" font-size="14.00" fill="#000000">3</text>
</g>
<!-- 1&#45;&gt;3 -->
<g id="edge3" class="edge">
<title>1&#45;&gt;3</title>
<path fill="none" stroke="#000000" d="M66.1959,-79.4217C78.9378,-83.7769 95.1499,-88 110.1073,-88 110.1073,-88 110.1073,-88 244.7146,-88 254.7704,-88 265.6241,-87.2219 275.6258,-86.1845"/>
<polygon fill="#000000" stroke="#000000" points="276.1356,-89.6491 285.6712,-85.0314 275.3373,-82.6947 276.1356,-89.6491"/>
<text text-anchor="start" x="174.1073" y="-92.2" font-family="Times,serif" font-size="14.00" fill="#000000">c</text>
</g>
<!-- 2&#45;&gt;3 -->
<g id="edge2" class="edge">
<title>2&#45;&gt;3</title>
<path fill="none" stroke="#000000" d="M201.3499,-42.4027C222.7182,-49.842 254.1412,-60.7818 278.082,-69.1168"/>
<polygon fill="#000000" stroke="#000000" points="277.2383,-72.529 287.8331,-72.5116 279.5399,-65.9182 277.2383,-72.529"/>
<text text-anchor="start" x="241.2146" y="-62.2" font-family="Times,serif" font-size="14.00" fill="#000000">b</text>
</g>
<!-- 4 -->
<g id="node4" class="node">
<title>4</title>
<ellipse fill="none" stroke="#000000" cx="409.2146" cy="-104" rx="27" ry="18"/>
<text text-anchor="middle" x="409.2146" y="-99.8" font-family="Times,serif" font-size="14.00" fill="#000000">4</text>
</g>
<!-- 3&#45;&gt;4 -->
<g id="edge4" class="edge">
<title>3&#45;&gt;4</title>
<path fill="none" stroke="#000000" d="M337.7002,-87.043C348.6406,-89.6371 361.615,-92.7135 373.4893,-95.5291"/>
<polygon fill="#000000" stroke="#000000" points="373.0247,-99.0159 383.5624,-97.9175 374.6397,-92.2047 373.0247,-99.0159"/>
<text text-anchor="start" x="357.2146" y="-97.2" font-family="Times,serif" font-size="14.00" fill="#000000">d</text>
</g>
<!-- 5 -->
<g id="node5" class="node">
<title>5</title>
<ellipse fill="none" stroke="#000000" cx="547.0898" cy="-104" rx="27" ry="18"/>
<text text-anchor="middle" x="547.0898" y="-99.8" font-family="Times,serif" font-size="14.00" fill="#000000">5</text>
</g>
<!-- 3&#45;&gt;5 -->
<g id="edge6" class="edge">
<title>3&#45;&gt;5</title>
<path fill="none" stroke="#000000" d="M339.0519,-78.89C349.9555,-78.1315 362.6793,-77.3717 374.2146,-77 401.7559,-76.1125 408.8553,-73.7168 436.2146,-77 462.1959,-80.1179 490.8822,-87.2058 512.5662,-93.3372"/>
<polygon fill="#000000" stroke="#000000" points="511.724,-96.7371 522.303,-96.1588 513.6723,-90.0137 511.724,-96.7371"/>
<text text-anchor="start" x="454.2146" y="-84.2" font-family="Times,serif" font-size="14.00" fill="#000000">f</text>
</g>
<!-- 4&#45;&gt;5 -->
<g id="edge5" class="edge">
<title>4&#45;&gt;5</title>
<path fill="none" stroke="#000000" d="M436.4543,-104C457.4155,-104 486.6151,-104 509.7534,-104"/>
<polygon fill="#000000" stroke="#000000" points="509.9067,-107.5001 519.9067,-104 509.9067,-100.5001 509.9067,-107.5001"/>
<text text-anchor="start" x="476.8752" y="-108.2" font-family="Times,serif" font-size="14.00" fill="#000000">e</text>
</g>
</g>
</svg>
