<?xml version="1.0" encoding="UTF-8" standalone="no"?>
<!DOCTYPE svg PUBLIC "-//W3C//DTD SVG 1.1//EN"
 "http://www.w3.org/Graphics/SVG/1.1/DTD/svg11.dtd">
<!-- Generated by graphviz version 2.40.1 (20161225.0304)
 -->
<!-- Title: %0 Pages: 1 -->
<svg width="677pt" height="185pt"
 viewBox="0.00 0.00 676.62 185.00" xmlns="http://www.w3.org/2000/svg" xmlns:xlink="http://www.w3.org/1999/xlink">
<g id="graph0" class="graph" transform="scale(1 1) rotate(0) translate(4 181)">
<title>%0</title>
<polygon fill="#ffffff" stroke="transparent" points="-4,4 -4,-181 672.6228,-181 672.6228,4 -4,4"/>
<g id="clust1" class="cluster">
<title>cluster1</title>
<polygon fill="none" stroke="#000000" points="8,-8 8,-169 383.4278,-169 383.4278,-8 8,-8"/>
<text text-anchor="start" x="187.5456" y="-153.4" font-family="Times,serif" font-size="14.00" fill="#000000">C</text>
<text text-anchor="start" x="196.8822" y="-153.4" font-family="Times,serif" baseline-shift="sub" font-size="14.00" fill="#000000">1</text>
</g>
<g id="clust2" class="cluster">
<title>clusterY1</title>
<polygon fill="#add8e6" stroke="#add8e6" points="16,-38 16,-115 86,-115 86,-38 16,-38"/>
<text text-anchor="start" x="42.4467" y="-99.4" font-family="Times,serif" font-size="14.00" fill="#000000">Y</text>
<text text-anchor="start" x="52.5533" y="-99.4" font-family="Times,serif" baseline-shift="sub" font-size="14.00" fill="#000000">1</text>
</g>
<g id="clust3" class="cluster">
<title>clusterY2</title>
<polygon fill="#add8e6" stroke="#add8e6" points="160.3212,-16 160.3212,-93 230.3212,-93 230.3212,-16 160.3212,-16"/>
<text text-anchor="start" x="186.7679" y="-77.4" font-family="Times,serif" font-size="14.00" fill="#000000">Y</text>
<text text-anchor="start" x="196.8745" y="-77.4" font-family="Times,serif" baseline-shift="sub" font-size="14.00" fill="#000000">2</text>
</g>
<g id="clust4" class="cluster">
<title>clusterY3</title>
<polygon fill="#add8e6" stroke="#add8e6" points="305.4278,-34 305.4278,-111 375.4278,-111 375.4278,-34 305.4278,-34"/>
<text text-anchor="start" x="331.8745" y="-95.4" font-family="Times,serif" font-size="14.00" fill="#000000">Y</text>
<text text-anchor="start" x="341.9811" y="-95.4" font-family="Times,serif" baseline-shift="sub" font-size="14.00" fill="#000000">3</text>
</g>
<g id="clust5" class="cluster">
<title>cluster3</title>
<polygon fill="none" stroke="#000000" points="416.5344,-42 416.5344,-160 660.6228,-160 660.6228,-42 416.5344,-42"/>
<text text-anchor="start" x="530.4103" y="-144.4" font-family="Times,serif" font-size="14.00" fill="#000000">C</text>
<text text-anchor="start" x="539.7469" y="-144.4" font-family="Times,serif" baseline-shift="sub" font-size="14.00" fill="#000000">3</text>
</g>
<g id="clust6" class="cluster">
<title>clusterY4</title>
<polygon fill="#add8e6" stroke="#add8e6" points="424.5344,-50 424.5344,-127 494.5344,-127 494.5344,-50 424.5344,-50"/>
<text text-anchor="start" x="450.9811" y="-111.4" font-family="Times,serif" font-size="14.00" fill="#000000">Y</text>
<text text-anchor="start" x="461.0877" y="-111.4" font-family="Times,serif" baseline-shift="sub" font-size="14.00" fill="#000000">4</text>
</g>
<g id="clust7" class="cluster">
<title>clusterY5</title>
<polygon fill="#add8e6" stroke="#add8e6" points="582.6228,-50 582.6228,-127 652.6228,-127 652.6228,-50 582.6228,-50"/>
<text text-anchor="start" x="609.0695" y="-111.4" font-family="Times,serif" font-size="14.00" fill="#000000">Y</text>
<text text-anchor="start" x="619.1761" y="-111.4" font-family="Times,serif" baseline-shift="sub" font-size="14.00" fill="#000000">5</text>
</g>
<!-- 1 -->
<g id="node1" class="node">
<title>1</title>
<ellipse fill="#ffffff" stroke="#ffffff" cx="51" cy="-64" rx="27" ry="18"/>
<text text-anchor="start" x="42.4467" y="-60.8" font-family="Times,serif" font-size="14.00" fill="#000000">X</text>
<text text-anchor="start" x="52.5533" y="-60.8" font-family="Times,serif" baseline-shift="sub" font-size="14.00" fill="#000000">1</text>
</g>
<!-- 2 -->
<g id="node2" class="node">
<title>2</title>
<ellipse fill="#ffffff" stroke="#ffffff" cx="195.3212" cy="-42" rx="27" ry="18"/>
<text text-anchor="start" x="186.7679" y="-38.8" font-family="Times,serif" font-size="14.00" fill="#000000">X</text>
<text text-anchor="start" x="196.8745" y="-38.8" font-family="Times,serif" baseline-shift="sub" font-size="14.00" fill="#000000">2</text>
</g>
<!-- 1&#45;&gt;2 -->
<g id="edge1" class="edge">
<title>1&#45;&gt;2</title>
<path fill="none" stroke="#000000" d="M77.4707,-59.9649C100.2146,-56.4978 133.2455,-51.4627 158.5551,-47.6045"/>
<polygon fill="#000000" stroke="#000000" points="151.7186,-53.2685 160.3212,-47.0841 149.7395,-46.554 151.7186,-53.2685"/>
<text text-anchor="start" x="115" y="-59.2" font-family="Times,serif" font-size="14.00" fill="#000000">X</text>
<text text-anchor="start" x="125.1066" y="-59.2" font-family="Times,serif" baseline-shift="sub" font-size="14.00" fill="#000000">a</text>
</g>
<!-- 3 -->
<g id="node3" class="node">
<title>3</title>
<ellipse fill="#ffffff" stroke="#ffffff" cx="340.4278" cy="-60" rx="27" ry="18"/>
<text text-anchor="start" x="331.8745" y="-56.8" font-family="Times,serif" font-size="14.00" fill="#000000">X</text>
<text text-anchor="start" x="341.9811" y="-56.8" font-family="Times,serif" baseline-shift="sub" font-size="14.00" fill="#000000">3</text>
</g>
<!-- 1&#45;&gt;3 -->
<g id="edge3" class="edge">
<title>1&#45;&gt;3</title>
<path fill="none" stroke="#000000" d="M62.4851,-80.5018C75.2509,-96.7024 97.4849,-119 123.1606,-119 123.1606,-119 123.1606,-119 267.8745,-119 278.462,-119 288.3635,-115.1714 297.2415,-109.4647"/>
<polygon fill="#000000" stroke="#000000" points="299.42,-112.2077 305.4288,-103.4816 295.2898,-106.556 299.42,-112.2077"/>
<text text-anchor="start" x="187.1606" y="-124.2" font-family="Times,serif" font-size="14.00" fill="#000000">X</text>
<text text-anchor="start" x="197.2672" y="-124.2" font-family="Times,serif" baseline-shift="sub" font-size="14.00" fill="#000000">c</text>
</g>
<!-- 2&#45;&gt;3 -->
<g id="edge2" class="edge">
<title>2&#45;&gt;3</title>
<path fill="none" stroke="#000000" d="M221.936,-45.3015C244.8036,-48.1381 278.0143,-52.2578 303.4616,-55.4145"/>
<polygon fill="#000000" stroke="#000000" points="295.0727,-57.8997 305.4278,-55.6585 295.9352,-50.953 295.0727,-57.8997"/>
<text text-anchor="start" x="259.3212" y="-57.2" font-family="Times,serif" font-size="14.00" fill="#000000">X</text>
<text text-anchor="start" x="269.4278" y="-57.2" font-family="Times,serif" baseline-shift="sub" font-size="14.00" fill="#000000">b</text>
</g>
<!-- 4 -->
<g id="node4" class="node">
<title>4</title>
<ellipse fill="#ffffff" stroke="#ffffff" cx="459.5344" cy="-76" rx="27" ry="18"/>
<text text-anchor="start" x="450.9811" y="-72.8" font-family="Times,serif" font-size="14.00" fill="#000000">X</text>
<text text-anchor="start" x="461.0877" y="-72.8" font-family="Times,serif" baseline-shift="sub" font-size="14.00" fill="#000000">4</text>
</g>
<!-- 3&#45;&gt;4 -->
<g id="edge4" class="edge">
<title>3&#45;&gt;4</title>
<path fill="none" stroke="#000000" d="M367.1576,-63.5907C383.5553,-65.7935 404.7812,-68.6448 422.7509,-71.0587"/>
<polygon fill="#000000" stroke="#000000" points="414.0375,-72.8588 424.5344,-71.4213 415.4321,-65.999 414.0375,-72.8588"/>
<text text-anchor="start" x="391.4278" y="-73.2" font-family="Times,serif" font-size="14.00" fill="#000000">X</text>
<text text-anchor="start" x="401.5344" y="-73.2" font-family="Times,serif" baseline-shift="sub" font-size="14.00" fill="#000000">d</text>
</g>
<!-- 5 -->
<g id="node5" class="node">
<title>5</title>
<ellipse fill="#ffffff" stroke="#ffffff" cx="617.6228" cy="-76" rx="27" ry="18"/>
<text text-anchor="start" x="609.0695" y="-72.8" font-family="Times,serif" font-size="14.00" fill="#000000">X</text>
<text text-anchor="start" x="619.1761" y="-72.8" font-family="Times,serif" baseline-shift="sub" font-size="14.00" fill="#000000">5</text>
</g>
<!-- 3&#45;&gt;5 -->
<g id="edge6" class="edge">
<title>3&#45;&gt;5</title>
<path fill="none" stroke="#000000" d="M365.9835,-54.0986C380.6797,-51.0074 399.5429,-47.5498 416.5344,-46 451.0578,-42.8511 460.1151,-41.866 494.5344,-46 520.8371,-49.1591 549.636,-55.9862 572.7601,-62.3306"/>
<polygon fill="#000000" stroke="#000000" points="572.0527,-65.7673 582.6266,-65.102 573.9457,-59.0281 572.0527,-65.7673"/>
<text text-anchor="start" x="504.5344" y="-54.2" font-family="Times,serif" font-size="14.00" fill="#000000">X</text>
<text text-anchor="start" x="514.641" y="-54.2" font-family="Times,serif" baseline-shift="sub" font-size="14.00" fill="#000000">f</text>
</g>
<!-- 4&#45;&gt;5 -->
<g id="edge5" class="edge">
<title>4&#45;&gt;5</title>
<path fill="none" stroke="#000000" d="M486.7108,-76C512.5784,-76 551.7149,-76 580.4605,-76"/>
<polygon fill="#000000" stroke="#000000" points="572.623,-79.5005 582.6228,-76 572.6226,-72.5005 572.623,-79.5005"/>
<text text-anchor="start" x="537.3016" y="-81.2" font-family="Times,serif" font-size="14.00" fill="#000000">X</text>
<text text-anchor="start" x="547.4082" y="-81.2" font-family="Times,serif" baseline-shift="sub" font-size="14.00" fill="#000000">e</text>
</g>
</g>
</svg>
