<?xml version="1.0" encoding="UTF-8" standalone="no"?>
<!DOCTYPE svg PUBLIC "-//W3C//DTD SVG 1.1//EN"
 "http://www.w3.org/Graphics/SVG/1.1/DTD/svg11.dtd">
<!-- Generated by graphviz version 2.40.1 (20161225.0304)
 -->
<!-- Title: %0 Pages: 1 -->
<svg width="649pt" height="171pt"
 viewBox="0.00 0.00 648.62 171.00" xmlns="http://www.w3.org/2000/svg" xmlns:xlink="http://www.w3.org/1999/xlink">
<g id="graph0" class="graph" transform="scale(1 1) rotate(0) translate(4 167)">
<title>%0</title>
<polygon fill="#ffffff" stroke="transparent" points="-4,4 -4,-167 644.6228,-167 644.6228,4 -4,4"/>
<g id="clust1" class="cluster">
<title>cluster1</title>
<polygon fill="none" stroke="#000000" points="8,-8 8,-138 367.4278,-138 367.4278,-8 8,-8"/>
<text text-anchor="start" x="179.5456" y="-122.4" font-family="Times,serif" font-size="14.00" fill="#000000">C</text>
<text text-anchor="start" x="188.8822" y="-122.4" font-family="Times,serif" baseline-shift="sub" font-size="14.00" fill="#000000">1</text>
</g>
<g id="clust2" class="cluster">
<title>cluster3</title>
<polygon fill="none" stroke="#000000" points="404.5344,-78 404.5344,-155 632.6228,-155 632.6228,-78 404.5344,-78"/>
<text text-anchor="start" x="510.4103" y="-139.4" font-family="Times,serif" font-size="14.00" fill="#000000">C</text>
<text text-anchor="start" x="519.7469" y="-139.4" font-family="Times,serif" baseline-shift="sub" font-size="14.00" fill="#000000">3</text>
</g>
<!-- 1 -->
<g id="node1" class="node">
<title>1</title>
<ellipse fill="none" stroke="#000000" cx="43" cy="-70" rx="27" ry="18"/>
<text text-anchor="start" x="35.2237" y="-66.8" font-family="Times,serif" font-size="14.00" fill="#000000">Z</text>
<text text-anchor="start" x="43.7763" y="-66.8" font-family="Times,serif" baseline-shift="sub" font-size="14.00" fill="#000000">1</text>
</g>
<!-- 2 -->
<g id="node2" class="node">
<title>2</title>
<ellipse fill="none" stroke="#000000" cx="187.3212" cy="-34" rx="27" ry="18"/>
<text text-anchor="start" x="179.5449" y="-30.8" font-family="Times,serif" font-size="14.00" fill="#000000">Z</text>
<text text-anchor="start" x="188.0975" y="-30.8" font-family="Times,serif" baseline-shift="sub" font-size="14.00" fill="#000000">2</text>
</g>
<!-- 1&#45;&#45;2 -->
<g id="edge1" class="edge">
<title>1&#45;&#45;2</title>
<path fill="none" stroke="#000000" d="M68.4695,-63.6468C94.6881,-57.1067 135.3181,-46.9718 161.6208,-40.4108"/>
<text text-anchor="start" x="107" y="-58.2" font-family="Times,serif" font-size="14.00" fill="#000000">X</text>
<text text-anchor="start" x="117.1066" y="-58.2" font-family="Times,serif" baseline-shift="sub" font-size="14.00" fill="#000000">a</text>
</g>
<!-- 3 -->
<g id="node3" class="node">
<title>3</title>
<ellipse fill="none" stroke="#000000" cx="332.4278" cy="-81" rx="27" ry="18"/>
<text text-anchor="start" x="324.6515" y="-77.8" font-family="Times,serif" font-size="14.00" fill="#000000">Z</text>
<text text-anchor="start" x="333.2041" y="-77.8" font-family="Times,serif" baseline-shift="sub" font-size="14.00" fill="#000000">3</text>
</g>
<!-- 2&#45;&#45;3 -->
<g id="edge2" class="edge">
<title>2&#45;&#45;3</title>
<path fill="none" stroke="#000000" d="M211.6088,-41.8667C238.3946,-50.5427 281.2435,-64.4214 308.061,-73.1076"/>
<text text-anchor="start" x="251.3212" y="-65.2" font-family="Times,serif" font-size="14.00" fill="#000000">X</text>
<text text-anchor="start" x="261.4278" y="-65.2" font-family="Times,serif" baseline-shift="sub" font-size="14.00" fill="#000000">b</text>
</g>
<!-- 3&#45;&#45;1 -->
<g id="edge3" class="edge">
<title>3&#45;&#45;1</title>
<path fill="none" stroke="#000000" d="M305.9527,-84.7868C292.2326,-86.4362 275.1865,-88 259.8745,-88 115.1606,-88 115.1606,-88 115.1606,-88 98.6336,-88 80.5934,-83.5 66.685,-79"/>
<text text-anchor="start" x="179.1606" y="-93.2" font-family="Times,serif" font-size="14.00" fill="#000000">X</text>
<text text-anchor="start" x="189.2672" y="-93.2" font-family="Times,serif" baseline-shift="sub" font-size="14.00" fill="#000000">c</text>
</g>
<!-- 4 -->
<g id="node4" class="node">
<title>4</title>
<ellipse fill="none" stroke="#000000" cx="439.5344" cy="-104" rx="27" ry="18"/>
<text text-anchor="start" x="431.7581" y="-100.8" font-family="Times,serif" font-size="14.00" fill="#000000">Z</text>
<text text-anchor="start" x="440.3107" y="-100.8" font-family="Times,serif" baseline-shift="sub" font-size="14.00" fill="#000000">4</text>
</g>
<!-- 3&#45;&#45;4 -->
<g id="edge4" class="edge">
<title>3&#45;&#45;4</title>
<path fill="none" stroke="#000000" d="M358.3553,-86.5677C375.0713,-90.1572 396.7324,-94.8087 413.4744,-98.4039"/>
<text text-anchor="start" x="377.4278" y="-98.2" font-family="Times,serif" font-size="14.00" fill="#000000">X</text>
<text text-anchor="start" x="387.5344" y="-98.2" font-family="Times,serif" baseline-shift="sub" font-size="14.00" fill="#000000">d</text>
</g>
<!-- 5 -->
<g id="node5" class="node">
<title>5</title>
<ellipse fill="none" stroke="#000000" cx="597.6228" cy="-104" rx="27" ry="18"/>
<text text-anchor="start" x="589.8465" y="-100.8" font-family="Times,serif" font-size="14.00" fill="#000000">Z</text>
<text text-anchor="start" x="598.3991" y="-100.8" font-family="Times,serif" baseline-shift="sub" font-size="14.00" fill="#000000">5</text>
</g>
<!-- 4&#45;&#45;5 -->
<g id="edge5" class="edge">
<title>4&#45;&#45;5</title>
<path fill="none" stroke="#000000" d="M466.7108,-104C495.7552,-104 541.5274,-104 570.537,-104"/>
<text text-anchor="start" x="517.3016" y="-109.2" font-family="Times,serif" font-size="14.00" fill="#000000">X</text>
<text text-anchor="start" x="527.4082" y="-109.2" font-family="Times,serif" baseline-shift="sub" font-size="14.00" fill="#000000">e</text>
</g>
<!-- 5&#45;&#45;3 -->
<g id="edge6" class="edge">
<title>5&#45;&#45;3</title>
<path fill="none" stroke="#000000" d="M571.7775,-98.3741C551.9664,-94.1001 523.9363,-88.1358 499.3016,-83.2 484.7688,-80.2882 481.2913,-78.3838 466.5344,-77 439.0992,-74.4273 432.0794,-76.2366 404.5344,-77 389.6202,-77.4134 372.9908,-78.3067 359.4634,-79.1446"/>
<text text-anchor="start" x="484.5344" y="-88.2" font-family="Times,serif" font-size="14.00" fill="#000000">X</text>
<text text-anchor="start" x="494.641" y="-88.2" font-family="Times,serif" baseline-shift="sub" font-size="14.00" fill="#000000">f</text>
</g>
</g>
</svg>
