<?xml version="1.0" encoding="UTF-8" standalone="no"?>
<!DOCTYPE svg PUBLIC "-//W3C//DTD SVG 1.1//EN"
 "http://www.w3.org/Graphics/SVG/1.1/DTD/svg11.dtd">
<!-- Generated by graphviz version 2.40.1 (20161225.0304)
 -->
<!-- Title: %0 Pages: 1 -->
<svg width="489pt" height="81pt"
 viewBox="0.00 0.00 488.86 81.00" xmlns="http://www.w3.org/2000/svg" xmlns:xlink="http://www.w3.org/1999/xlink">
<g id="graph0" class="graph" transform="scale(1 1) rotate(0) translate(4 77)">
<title>%0</title>
<polygon fill="#ffffff" stroke="transparent" points="-4,4 -4,-77 484.8556,-77 484.8556,4 -4,4"/>
<!-- 1 -->
<g id="node1" class="node">
<title>1</title>
<ellipse fill="none" stroke="#000000" cx="27" cy="-18" rx="27" ry="18"/>
<text text-anchor="start" x="19.2237" y="-14.8" font-family="Times,serif" font-size="14.00" fill="#000000">Z</text>
<text text-anchor="start" x="27.7763" y="-14.8" font-family="Times,serif" baseline-shift="sub" font-size="14.00" fill="#000000">1</text>
</g>
<!-- 2 -->
<g id="node2" class="node">
<title>2</title>
<ellipse fill="none" stroke="#000000" cx="133.3212" cy="-55" rx="27" ry="18"/>
<text text-anchor="start" x="125.5449" y="-51.8" font-family="Times,serif" font-size="14.00" fill="#000000">Z</text>
<text text-anchor="start" x="134.0975" y="-51.8" font-family="Times,serif" baseline-shift="sub" font-size="14.00" fill="#000000">2</text>
</g>
<!-- 1&#45;&#45;2 -->
<g id="edge1" class="edge">
<title>1&#45;&#45;2</title>
<path fill="none" stroke="#000000" d="M51.1259,-26.3959C68.526,-32.4511 91.9126,-40.5897 109.2908,-46.6374"/>
<text text-anchor="start" x="72" y="-43.2" font-family="Times,serif" font-size="14.00" fill="#000000">X</text>
<text text-anchor="start" x="82.1066" y="-43.2" font-family="Times,serif" baseline-shift="sub" font-size="14.00" fill="#000000">a</text>
</g>
<!-- 3 -->
<g id="node3" class="node">
<title>3</title>
<ellipse fill="none" stroke="#000000" cx="240.4278" cy="-18" rx="27" ry="18"/>
<text text-anchor="start" x="232.6515" y="-14.8" font-family="Times,serif" font-size="14.00" fill="#000000">Z</text>
<text text-anchor="start" x="241.2041" y="-14.8" font-family="Times,serif" baseline-shift="sub" font-size="14.00" fill="#000000">3</text>
</g>
<!-- 2&#45;&#45;3 -->
<g id="edge2" class="edge">
<title>2&#45;&#45;3</title>
<path fill="none" stroke="#000000" d="M157.358,-46.6965C174.8743,-40.6455 198.5172,-32.478 216.1006,-26.4038"/>
<text text-anchor="start" x="178.3212" y="-43.2" font-family="Times,serif" font-size="14.00" fill="#000000">X</text>
<text text-anchor="start" x="188.4278" y="-43.2" font-family="Times,serif" baseline-shift="sub" font-size="14.00" fill="#000000">b</text>
</g>
<!-- 3&#45;&#45;1 -->
<g id="edge3" class="edge">
<title>3&#45;&#45;1</title>
<path fill="none" stroke="#000000" d="M213.7616,-15.1672C198.1973,-13.6562 178.1707,-11.9562 160.3212,-11.2 136.3427,-10.1841 130.2993,-10.1741 106.3212,-11.2 88.7839,-11.9503 69.1252,-13.6297 53.766,-15.1317"/>
<text text-anchor="start" x="125.1606" y="-17.2" font-family="Times,serif" font-size="14.00" fill="#000000">X</text>
<text text-anchor="start" x="135.2672" y="-17.2" font-family="Times,serif" baseline-shift="sub" font-size="14.00" fill="#000000">c</text>
</g>
<!-- 4 -->
<g id="node4" class="node">
<title>4</title>
<ellipse fill="none" stroke="#000000" cx="347.5344" cy="-55" rx="27" ry="18"/>
<text text-anchor="start" x="339.7581" y="-51.8" font-family="Times,serif" font-size="14.00" fill="#000000">Z</text>
<text text-anchor="start" x="348.3107" y="-51.8" font-family="Times,serif" baseline-shift="sub" font-size="14.00" fill="#000000">4</text>
</g>
<!-- 3&#45;&#45;4 -->
<g id="edge4" class="edge">
<title>3&#45;&#45;4</title>
<path fill="none" stroke="#000000" d="M264.4646,-26.3035C281.9809,-32.3545 305.6238,-40.522 323.2072,-46.5962"/>
<text text-anchor="start" x="285.4278" y="-43.2" font-family="Times,serif" font-size="14.00" fill="#000000">X</text>
<text text-anchor="start" x="295.5344" y="-43.2" font-family="Times,serif" baseline-shift="sub" font-size="14.00" fill="#000000">d</text>
</g>
<!-- 5 -->
<g id="node5" class="node">
<title>5</title>
<ellipse fill="none" stroke="#000000" cx="453.8556" cy="-18" rx="27" ry="18"/>
<text text-anchor="start" x="446.0793" y="-14.8" font-family="Times,serif" font-size="14.00" fill="#000000">Z</text>
<text text-anchor="start" x="454.6319" y="-14.8" font-family="Times,serif" baseline-shift="sub" font-size="14.00" fill="#000000">5</text>
</g>
<!-- 4&#45;&#45;5 -->
<g id="edge5" class="edge">
<title>4&#45;&#45;5</title>
<path fill="none" stroke="#000000" d="M371.6603,-46.6041C389.0604,-40.5489 412.447,-32.4103 429.8252,-26.3626"/>
<text text-anchor="start" x="392.5344" y="-43.2" font-family="Times,serif" font-size="14.00" fill="#000000">X</text>
<text text-anchor="start" x="402.641" y="-43.2" font-family="Times,serif" baseline-shift="sub" font-size="14.00" fill="#000000">e</text>
</g>
<!-- 5&#45;&#45;3 -->
<g id="edge6" class="edge">
<title>5&#45;&#45;3</title>
<path fill="none" stroke="#000000" d="M427.0896,-15.1317C411.7304,-13.6297 392.0717,-11.9503 374.5344,-11.2 350.5563,-10.1741 344.5129,-10.1841 320.5344,-11.2 302.6849,-11.9562 282.6583,-13.6562 267.094,-15.1672"/>
<text text-anchor="start" x="340.1508" y="-17.2" font-family="Times,serif" font-size="14.00" fill="#000000">X</text>
<text text-anchor="start" x="350.2574" y="-17.2" font-family="Times,serif" baseline-shift="sub" font-size="14.00" fill="#000000">f</text>
</g>
</g>
</svg>
